<?xml version="1.0" encoding="UTF-8" standalone="no"?>
<svg width="35px" height="35px" viewBox="0 0 40 40" version="1.1" xmlns="http://www.w3.org/2000/svg" xmlns:xlink="http://www.w3.org/1999/xlink">
    <!-- Generator: Sketch 3.7.2 (28276) - http://www.bohemiancoding.com/sketch -->
    <title>Page 1</title>
    <desc>Created with Sketch.</desc>
    <defs></defs>
    <g id="Page-1" stroke="none" stroke-width="1" fill="none" fill-rule="evenodd">
        <g fill="#1678B5">
            <path d="M35.5584,4.44197333 C29.6352,-1.48069333 20.0330667,-1.48069333 14.1104,4.44197333 C8.18773333,10.3651733 8.18773333,19.9673067 14.1104,25.8899733 C20.0330667,31.81264 29.6352,31.81264 35.5584,25.8899733 C41.4810667,19.9673067 41.4810667,10.3651733 35.5584,4.44197333 M33.8645333,24.1961067 C28.8773333,29.18384 20.7914667,29.18384 15.8042667,24.1961067 C10.8165333,19.2089067 10.8165333,11.12144 15.8042667,6.13584 C20.7914667,1.14810667 28.8789333,1.14810667 33.8645333,6.13584 C38.8522667,11.12304 38.8522667,19.2089067 33.8645333,24.1961067" id="Fill-1"></path>
            <polygon id="Fill-3" points="11.2874667 25.3251733 14.6730667 28.7107733 3.3856 39.99824 0 36.61264"></polygon>
        </g>
    </g>
</svg>