<?xml version="1.0" encoding="UTF-8" standalone="no"?>
<svg width="44px" height="44px" viewBox="0 0 44 44" version="1.1" xmlns="http://www.w3.org/2000/svg" xmlns:xlink="http://www.w3.org/1999/xlink">
    <!-- Generator: Sketch 3.7.2 (28276) - http://www.bohemiancoding.com/sketch -->
    <title>Group</title>
    <desc>Created with Sketch.</desc>
    <defs>
        <polygon id="path-1" points="44 21.9532 44 0.0004 0 0.0004 0 21.9532 0 43.906 44 43.906 44 21.9532"></polygon>
    </defs>
    <g id="Page-1" stroke="none" stroke-width="1" fill="none" fill-rule="evenodd">
        <g id="Group">
            <g id="Page-1">
                <mask id="mask-2" fill="white">
                    <use xlink:href="#path-1"></use>
                </mask>
                <g id="Clip-2"></g>
                <path d="M22,-7.10542736e-15 C34.15,-7.10542736e-15 44,9.829 44,21.953 C44,34.077 34.15,43.906 22,43.906 C9.85,43.906 0,34.077 0,21.953 C0,9.829 9.85,-7.10542736e-15 22,-7.10542736e-15" id="Fill-1" fill="#1678B5" mask="url(#mask-2)"></path>
            </g>
            <path d="M31.3482374,15.8660737 C30.6361829,16.1729937 29.8627445,16.3939761 29.0647525,16.4799137 C29.8872981,15.9888417 30.5134149,15.2154032 30.8080581,14.2946432 C30.0468965,14.7488848 29.1875205,15.0803584 28.2913141,15.2522336 C27.5669828,14.4787952 26.5357316,14 25.3939892,14 C23.1964419,14 21.4285827,15.7801361 21.4285827,17.9654065 C21.4285827,18.2723265 21.4654131,18.5792465 21.5267971,18.8738897 C18.2366146,18.7020145 15.3024593,17.1305841 13.350448,14.7243312 C13.0066976,15.3136176 12.8102688,15.9888417 12.8102688,16.7254497 C12.8102688,18.1004513 13.5100464,19.3158546 14.5781281,20.027909 C13.9274577,20.0033554 13.3136176,19.8192034 12.7857152,19.5245602 L12.7857152,19.5736674 C12.7857152,21.501125 14.1484401,23.0971091 15.9654065,23.4654131 C15.6339329,23.5513507 15.2779057,23.6004579 14.9218785,23.6004579 C14.6640657,23.6004579 14.4185297,23.5759043 14.1729937,23.5390739 C14.6763425,25.1105043 16.1372817,26.2522467 17.8805874,26.2890771 C16.5178625,27.3571588 14.8113873,27.9832756 12.9575904,27.9832756 C12.6261168,27.9832756 12.3191968,27.9709988 12,27.9341684 C13.7555824,29.063634 15.8426385,29.7143044 18.089293,29.7143044 C25.3817124,29.7143044 29.3716725,23.6741187 29.3716725,18.4319249 C29.3716725,18.2600497 29.3716725,18.0881745 29.3593957,17.9162993 C30.1328341,17.3515665 30.8080581,16.6517889 31.3482374,15.8660737 L31.3482374,15.8660737 Z" id="" fill="#1C2631"></path>
        </g>
    </g>
</svg>