<?xml version="1.0" encoding="UTF-8" standalone="no"?>
<svg width="44px" height="44px" viewBox="0 0 44 44" version="1.1" xmlns="http://www.w3.org/2000/svg" xmlns:xlink="http://www.w3.org/1999/xlink">
    <!-- Generator: Sketch 3.7.2 (28276) - http://www.bohemiancoding.com/sketch -->
    <title>Group</title>
    <desc>Created with Sketch.</desc>
    <defs>
        <polygon id="path-1" points="44 21.9532 44 0.0004 0 0.0004 0 21.9532 0 43.906 44 43.906 44 21.9532"></polygon>
    </defs>
    <g id="Page-1" stroke="none" stroke-width="1" fill="none" fill-rule="evenodd">
        <g id="Group">
            <g id="Page-1">
                <mask id="mask-2" fill="white">
                    <use xlink:href="#path-1"></use>
                </mask>
                <g id="Clip-2"></g>
                <path d="M22,-7.10542736e-15 C34.15,-7.10542736e-15 44,9.829 44,21.953 C44,34.077 34.15,43.906 22,43.906 C9.85,43.906 0,34.077 0,21.953 C0,9.829 9.85,-7.10542736e-15 22,-7.10542736e-15" id="Fill-1" fill="#1678B5" mask="url(#mask-2)"></path>
            </g>
            <path d="M24.5892995,26.2723396 C24.5892995,25.7321604 24.4297011,25.449794 24.1105043,25.449794 C23.9263523,25.449794 23.7422003,25.5357316 23.5580483,25.7198836 L23.5580483,29.4152005 C23.7422003,29.5993525 23.9263523,29.6852901 24.1105043,29.6852901 C24.4297011,29.6852901 24.5892995,29.4152005 24.5892995,28.8627445 L24.5892995,26.2723396 Z M28.738858,26.2846164 C28.738858,25.7321604 28.554706,25.449794 28.186402,25.449794 C27.818098,25.449794 27.633946,25.7321604 27.633946,26.2846164 L27.633946,26.8493493 L28.738858,26.8493493 L28.738858,26.2846164 Z M16.8794689,23.608274 L16.8794689,30.5937734 L15.6517889,30.5937734 L15.6517889,23.608274 L14.3627248,23.608274 L14.3627248,22.4542547 L18.1930865,22.4542547 L18.1930865,23.608274 L16.8794689,23.608274 Z M20.4151874,30.5937734 L20.4151874,29.9308261 C19.9732226,30.434175 19.5558114,30.679711 19.1629538,30.679711 C18.8069266,30.679711 18.5491138,30.5323894 18.4508994,30.2254693 C18.3895154,30.0413173 18.352685,29.7589509 18.352685,29.3292629 L18.352685,24.529034 L19.4453202,24.529034 L19.4453202,28.9977893 C19.4453202,29.2556021 19.4453202,29.3906469 19.457597,29.4274773 C19.4821506,29.5993525 19.5680882,29.6852901 19.7154098,29.6852901 C19.9363922,29.6852901 20.1696514,29.5134149 20.4151874,29.1696645 L20.4151874,24.529034 L21.5078226,24.529034 L21.5078226,30.5937734 L20.4151874,30.5937734 Z M25.6819348,28.7768069 C25.6819348,29.3415397 25.6573812,29.7466741 25.5714436,30.0044869 C25.4363988,30.4464518 25.1294787,30.679711 24.6997907,30.679711 C24.3069331,30.679711 23.9263523,30.4587286 23.5580483,30.0044869 L23.5580483,30.5937734 L22.4654131,30.5937734 L22.4654131,22.4542547 L23.5580483,22.4542547 L23.5580483,25.1183204 C23.9140755,24.6763556 24.2946563,24.4553732 24.6997907,24.4553732 C25.1294787,24.4553732 25.4363988,24.6886324 25.5714436,25.142874 C25.6573812,25.38841 25.6819348,25.7935444 25.6819348,26.3582772 L25.6819348,28.7768069 Z M29.8314933,28.6540389 C29.8314933,29.0100661 29.8314933,29.2556021 29.8069397,29.3660933 C29.7823861,29.6116293 29.6841717,29.8326117 29.5491269,30.0290405 C29.2544837,30.4587286 28.800242,30.679711 28.2232324,30.679711 C27.6462228,30.679711 27.2165348,30.4710054 26.897338,30.0535941 C26.6640788,29.7589509 26.5413108,29.2801557 26.5413108,28.6294853 L26.5413108,26.5055988 C26.5413108,25.8549284 26.651802,25.38841 26.8850612,25.08149 C27.204258,24.6640788 27.633946,24.4553732 28.1986788,24.4553732 C28.7511348,24.4553732 29.1808229,24.6640788 29.5000197,25.08149 C29.7210021,25.38841 29.8314933,25.8549284 29.8314933,26.5055988 L29.8314933,27.7701093 L27.633946,27.7701093 L27.633946,28.8381909 C27.633946,29.4029237 27.818098,29.6852901 28.1986788,29.6852901 C28.4687684,29.6852901 28.6283668,29.5379685 28.6897508,29.2433253 C28.7020276,29.1819413 28.7143044,28.9364053 28.7143044,28.4944405 L29.8314933,28.4944405 L29.8314933,28.6540389 Z M22.3671987,17.4453202 C22.3671987,18.010053 22.2076003,18.3046962 21.8392963,18.3046962 C21.483269,18.3046962 21.3113938,18.010053 21.3113938,17.4453202 L21.3113938,14.8671921 C21.3113938,14.3024593 21.483269,14.0200929 21.8392963,14.0200929 C22.2076003,14.0200929 22.3671987,14.3024593 22.3671987,14.8671921 L22.3671987,17.4453202 Z M31.1942181,26.6651972 C31.1942181,25.2410884 31.1942181,23.7433188 30.8750213,22.3683171 C30.6540389,21.3984499 29.8560469,20.6863955 28.9107333,20.5759043 C26.651802,20.3303683 24.3683171,20.3303683 22.0971091,20.3303683 C19.825901,20.3303683 17.5424161,20.3303683 15.2957617,20.5759043 C14.3381712,20.6863955 13.552456,21.3984499 13.3191968,22.3683171 C13.0122768,23.7433188 13,25.2410884 13,26.6651972 C13,28.0770293 13,29.5870757 13.3191968,30.9620774 C13.5401792,31.9319446 14.3381712,32.643999 15.2834849,32.7422134 C17.5424161,33.0000262 19.825901,33.0000262 22.0971091,33.0000262 C24.3683171,33.0000262 26.651802,33.0000262 28.9107333,32.7422134 C29.8560469,32.643999 30.6417621,31.9319446 30.8750213,30.9620774 C31.1819413,29.5870757 31.1942181,28.0770293 31.1942181,26.6651972 L31.1942181,26.6651972 Z M18.9419714,11 L18.1071489,14.2287985 L17.2354961,11 L15.9341553,11 C16.1919681,11.7611616 16.4620577,12.5346 16.7321473,13.2957617 C17.1250049,14.4375041 17.3705409,15.2968801 17.4810321,15.8984433 L17.4810321,19.2254562 L18.7087122,19.2254562 L18.7087122,15.8984433 L20.194205,11 L18.9419714,11 Z M23.4843875,15.0881745 C23.4843875,14.4375041 23.3738963,13.9587089 23.1406371,13.6517889 C22.8337171,13.2343777 22.4040291,13.0256721 21.8392963,13.0256721 C21.2868402,13.0256721 20.8571522,13.2343777 20.5502322,13.6517889 C20.316973,13.9587089 20.2064818,14.4375041 20.2064818,15.0881745 L20.2064818,17.2366146 C20.2064818,17.887285 20.316973,18.3660802 20.5502322,18.685277 C20.8571522,19.1026882 21.2868402,19.3113938 21.8392963,19.3113938 C22.4040291,19.3113938 22.8337171,19.1026882 23.1406371,18.685277 C23.3738963,18.378357 23.4843875,17.887285 23.4843875,17.2366146 L23.4843875,15.0881745 Z M27.5971156,13.0993329 L26.4799268,13.0993329 L26.4799268,17.7767938 C26.2343908,18.132821 26.0011316,18.3046962 25.7801492,18.3046962 C25.6328276,18.3046962 25.54689,18.2064818 25.5223364,18.0346066 C25.5100596,18.010053 25.5100596,17.8627314 25.5100596,17.6049186 L25.5100596,13.0993329 L24.3928707,13.0993329 L24.3928707,17.9363922 C24.3928707,18.378357 24.4297011,18.6730002 24.4910851,18.8571522 C24.6015763,19.1640722 24.8593891,19.3113938 25.2154163,19.3113938 C25.6205508,19.3113938 26.037962,19.0658578 26.4799268,18.5502322 L26.4799268,19.2254562 L27.5971156,19.2254562 L27.5971156,13.0993329 Z" id="" fill="#1C2631"></path>
        </g>
    </g>
</svg>