<?xml version="1.0" encoding="UTF-8" standalone="no"?>
<svg width="44px" height="44px" viewBox="0 0 44 44" version="1.1" xmlns="http://www.w3.org/2000/svg" xmlns:xlink="http://www.w3.org/1999/xlink">
    <!-- Generator: Sketch 3.7.2 (28276) - http://www.bohemiancoding.com/sketch -->
    <title>Group</title>
    <desc>Created with Sketch.</desc>
    <defs>
        <polygon id="path-1" points="44 21.9532 44 0.0004 0 0.0004 0 21.9532 0 43.906 44 43.906 44 21.9532"></polygon>
    </defs>
    <g id="Page-1" stroke="none" stroke-width="1" fill="none" fill-rule="evenodd">
        <g id="Group">
            <g id="Page-1">
                <mask id="mask-2" fill="white">
                    <use xlink:href="#path-1"></use>
                </mask>
                <g id="Clip-2"></g>
                <path d="M22,-7.10542736e-15 C34.15,-7.10542736e-15 44,9.829 44,21.953 C44,34.077 34.15,43.906 22,43.906 C9.85,43.906 0,34.077 0,21.953 C0,9.829 9.85,-7.10542736e-15 22,-7.10542736e-15" id="Fill-1" fill="#1678B5" mask="url(#mask-2)"></path>
            </g>
            <path d="M27.7734515,11.2901563 C27.4419779,11.2410491 26.3002355,11.1428347 24.9743411,11.1428347 C22.1997842,11.1428347 20.2968801,12.8370331 20.2968801,15.9430636 L20.2968801,18.6194061 L17.166296,18.6194061 L17.166296,22.253339 L20.2968801,22.253339 L20.2968801,31.5714304 L24.053581,31.5714304 L24.053581,22.253339 L27.1718883,22.253339 L27.6506835,18.6194061 L24.053581,18.6194061 L24.053581,16.2990908 C24.053581,15.2555628 24.3359474,14.5312316 25.8459939,14.5312316 L27.7734515,14.5312316 L27.7734515,11.2901563 Z" id="Shape" fill="#1C2631"></path>
        </g>
    </g>
</svg>