<?xml version="1.0" encoding="utf-8"?>
<!-- Generator: Adobe Illustrator 17.0.0, SVG Export Plug-In . SVG Version: 6.00 Build 0)  -->
<!DOCTYPE svg PUBLIC "-//W3C//DTD SVG 1.1//EN" "http://www.w3.org/Graphics/SVG/1.1/DTD/svg11.dtd">
<svg version="1.1" id="Layer_1" xmlns="http://www.w3.org/2000/svg" xmlns:xlink="http://www.w3.org/1999/xlink" x="0px" y="0px"
	 width="294px" height="66px" viewBox="0 0 294 66" enable-background="new 0 0 294 66" xml:space="preserve">
<rect x="-40.4" y="-77" display="none" fill="#05283D" width="432" height="216"/>
<g id="Full">
	<g id="Background">
		<path fill="#1679B5" d="M95.9,15.8h16.9c7.9,0,12.5,4,12.5,9.8c0,7.8-6.6,11-14.9,11H104l-2,9.8H89.4L95.9,15.8z M105.6,29.1h3.1
			c2.4,0,3.9-1.3,3.9-3.4c0-1.4-0.7-2.6-3-2.6h-2.7L105.6,29.1z"/>
		<polygon fill="#1679B5" points="136.9,15.8 149.7,15.8 145,38.4 160,38.4 157,46.4 130.4,46.4 		"/>
		<path fill="#1679B5" d="M8,5.3h30.9l10.7,12.8l15-12.8h30.7L62.9,33.7l23.8,27.8H56L45.1,48.9L30.8,61.5H0.1l31.7-27.8L8,5.3z"/>
		<path fill="#1679B5" d="M213.5,46.4l6.4-30.6h14.6c1.6,6,3,12.3,4,16.7h0.3c0.1-2.3,1.2-7.8,2.2-12.9l0.8-3.8h11.3l-6.5,30.6
			h-13.9c-1.1-4.7-3.2-14-4.2-18.9h-0.2c-0.3,3.6-1.5,9.2-2.6,14.5l-0.9,4.4H213.5z"/>
		<polygon fill="#1679B5" points="286.7,34.9 272.2,34.9 271.4,38.2 288.2,38.2 285,46.3 257.3,46.3 263.8,15.7 291.4,15.7 
			289.8,23.7 274.5,23.7 273.8,26.9 288.3,26.9 		"/>
		<path fill="#1679B5" d="M199.9,15.9H183l-16.6,30.6h13.1l2.3-4.6h9.6l0.4,4.6h12.7L199.9,15.9z M185.7,33.9
			c1.3-2.9,3.1-7.2,4.1-10h0.3c0.2,2.9,0.4,7.5,0.7,10H185.7z"/>
	</g>
	<g id="Foreground">
		<path fill="#1BA2DC" d="M97.2,14.5h16.9c7.9,0,12.5,4,12.5,9.8c0,7.8-6.6,11-14.9,11h-6.4l-2,9.8H90.7L97.2,14.5z M106.9,27.8h3.1
			c2.4,0,3.9-1.3,3.9-3.4c0-1.4-0.7-2.6-3-2.6h-2.7L106.9,27.8z"/>
		<polygon fill="#1BA2DC" points="138.3,14.5 151.1,14.5 146.3,37 161.3,37 158.3,45.1 131.8,45.1 		"/>
		<path fill="#1BA2DC" d="M11.8,2h30.9l10.8,12.8L68.4,2h30.7L66.7,30.4l23.8,27.8H59.8l-11-12.6L34.6,58.2H3.8l31.7-27.8L11.8,2z"
			/>
		<path fill="#1BA2DC" d="M214.8,45.1l6.5-30.6h14.6c1.6,6,3,12.3,4,16.7h0.3c0.1-2.3,1.2-7.8,2.2-12.9l0.8-3.8h11.3L248,45.1h-13.9
			c-1.1-4.7-3.2-14-4.2-18.9h-0.2c-0.3,3.6-1.5,9.2-2.6,14.5l-0.9,4.4H214.8z"/>
		<polygon fill="#1BA2DC" points="287.9,33.6 273.4,33.6 272.8,36.9 289.4,36.9 286.3,45 258.7,45 265.2,14.3 292.8,14.3 
			291.2,22.4 275.8,22.4 275.2,25.6 289.8,25.6 		"/>
		<path fill="#1BA2DC" d="M201.3,14.6h-16.9l-16.6,30.6h13.1l2.3-4.6h9.6l0.4,4.6h12.7L201.3,14.6z M187,32.6
			c1.3-2.9,3.1-7.2,4.1-10h0.3c0.2,2.9,0.4,7.5,0.7,10H187z"/>
	</g>
	<g id="Pro">
		<rect x="173" y="48.2" fill="none" width="43.1" height="21.9"/>
		<g id="DEVELOPER_bg" enable-background="new    ">
			<path fill="#1679B5" d="M173.2,64.8l2.7-15.6l4.5,0c1.1,0,2,0.3,2.8,0.7c0.8,0.5,1.5,1.1,2,2s0.8,1.8,0.9,2.9
				c0.1,0.6,0,1.3,0,1.9l-0.1,0.6c-0.3,2.3-1.2,4.1-2.7,5.5c-1.5,1.4-3.3,2.1-5.4,2.1H173.2z M178.7,51.7l-1.8,10.4l1.3,0
				c1.4,0,2.6-0.5,3.5-1.6c0.9-1.1,1.4-2.7,1.5-4.8l0-0.3c0-1.2-0.2-2.1-0.7-2.7s-1.2-1-2.1-1L178.7,51.7z"/>
			<path fill="#1679B5" d="M197.5,58h-6l-0.7,4.2h7l-0.5,2.6h-10.2l2.7-15.6h10.2l-0.5,2.6h-7l-0.7,3.7h6L197.5,58z"/>
			<path fill="#1679B5" d="M205.6,60.9l5.3-11.7h3.6l-7.7,15.6h-3.3l-2.8-15.6h3.4L205.6,60.9z"/>
			<path fill="#1679B5" d="M223.7,58h-6l-0.7,4.2h7l-0.5,2.6h-10.2l2.7-15.6h10.2l-0.5,2.6h-7l-0.7,3.7h6L223.7,58z"/>
			<path fill="#1679B5" d="M229.1,62.2h6.6l-0.5,2.6h-9.8l2.7-15.6h3.1L229.1,62.2z"/>
			<path fill="#1679B5" d="M242.8,65c-1,0-2-0.3-2.7-0.7c-0.8-0.5-1.4-1.1-1.9-2c-0.5-0.9-0.7-1.9-0.8-3c-0.1-1.2,0-2.4,0.4-3.8
				s0.9-2.5,1.6-3.5s1.6-1.8,2.6-2.3c1-0.5,2.1-0.7,3.2-0.7c1.1,0,2,0.3,2.8,0.7c0.8,0.5,1.4,1.2,1.9,2.1s0.7,1.9,0.8,3
				c0.1,1.3-0.1,2.6-0.4,3.9s-0.9,2.5-1.6,3.5s-1.6,1.7-2.5,2.2C244.9,64.8,243.9,65,242.8,65z M247.2,56.5l0.1-1
				c0.1-1.3-0.1-2.2-0.5-2.9c-0.4-0.7-1-1-1.9-1c-1.3,0-2.4,0.5-3.1,1.7c-0.8,1.2-1.2,2.9-1.3,5c-0.1,1.3,0.1,2.2,0.5,2.9
				c0.4,0.7,1,1,1.9,1.1c1.1,0,2.1-0.4,2.8-1.3c0.7-0.9,1.2-2.2,1.5-3.9L247.2,56.5z"/>
			<path fill="#1679B5" d="M255.4,59.3l-1,5.5h-3.1l2.7-15.6l5.5,0c1.7,0,3,0.5,4,1.4s1.4,2.2,1.3,3.7c-0.1,1.5-0.8,2.8-1.9,3.7
				c-1.2,0.9-2.6,1.4-4.5,1.4L255.4,59.3z M255.9,56.7l2.6,0c0.8,0,1.5-0.2,2.1-0.7s0.9-1,1-1.8s0-1.3-0.4-1.8
				c-0.3-0.4-0.9-0.7-1.5-0.7l-3,0L255.9,56.7z"/>
			<path fill="#1679B5" d="M275.5,58h-6l-0.7,4.2h7l-0.5,2.6h-10.2l2.7-15.6h10.2l-0.5,2.6h-7l-0.7,3.7h6L275.5,58z"/>
			<path fill="#1679B5" d="M284,59.1h-2.6l-1,5.7h-3.1l2.7-15.6l5.2,0c1.7,0,3.1,0.4,4,1.2c0.9,0.8,1.3,2,1.2,3.4
				c-0.2,2.1-1.3,3.6-3.4,4.5l2.2,6.3v0.2h-3.4L284,59.1z M281.9,56.4l2.3,0c0.8,0,1.5-0.2,2.1-0.7c0.5-0.4,0.9-1,1-1.8
				c0.1-0.7,0-1.2-0.3-1.6s-0.8-0.6-1.5-0.6l-2.7,0L281.9,56.4z"/>
		</g>
		<rect x="173.8" y="47.6" display="none" fill="none" width="43.1" height="21.9"/>
		<g id="DEVELOPER_fg" enable-background="new    ">
			<path fill="#1BA2DC" d="M174,64.2l2.7-15.6l4.5,0c1.1,0,2,0.3,2.8,0.7c0.8,0.5,1.5,1.1,2,2c0.5,0.9,0.8,1.8,0.9,2.9
				c0.1,0.6,0,1.3,0,1.9l-0.1,0.6c-0.3,2.3-1.2,4.1-2.7,5.5c-1.5,1.4-3.3,2.1-5.4,2.1H174z M179.4,51.1l-1.8,10.4l1.3,0
				c1.4,0,2.6-0.5,3.5-1.6c0.9-1.1,1.4-2.7,1.5-4.8l0-0.3c0-1.2-0.2-2.1-0.7-2.7c-0.5-0.6-1.2-1-2.1-1L179.4,51.1z"/>
			<path fill="#1BA2DC" d="M198.3,57.4h-6l-0.7,4.2h7l-0.5,2.6H188l2.7-15.6h10.2l-0.5,2.6h-7l-0.7,3.7h6L198.3,57.4z"/>
			<path fill="#1BA2DC" d="M206.4,60.3l5.3-11.7h3.6l-7.7,15.6h-3.3l-2.8-15.6h3.4L206.4,60.3z"/>
			<path fill="#1BA2DC" d="M224.5,57.4h-6l-0.7,4.2h7l-0.5,2.6h-10.2l2.7-15.6H227l-0.5,2.6h-7l-0.7,3.7h6L224.5,57.4z"/>
			<path fill="#1BA2DC" d="M229.9,61.6h6.6l-0.5,2.6h-9.8l2.7-15.6h3.1L229.9,61.6z"/>
			<path fill="#1BA2DC" d="M243.5,64.4c-1,0-2-0.3-2.7-0.7c-0.8-0.5-1.4-1.1-1.9-2c-0.5-0.9-0.7-1.9-0.8-3c-0.1-1.2,0-2.4,0.4-3.8
				s0.9-2.5,1.6-3.5s1.6-1.8,2.6-2.3c1-0.5,2.1-0.7,3.2-0.7c1.1,0,2,0.3,2.8,0.7c0.8,0.5,1.4,1.2,1.9,2.1c0.5,0.9,0.7,1.9,0.8,3
				c0.1,1.3-0.1,2.6-0.4,3.9s-0.9,2.5-1.6,3.5s-1.6,1.7-2.5,2.2C245.7,64.2,244.7,64.4,243.5,64.4z M248,55.9l0.1-1
				c0.1-1.3-0.1-2.2-0.5-2.9c-0.4-0.7-1-1-1.9-1c-1.3,0-2.4,0.5-3.1,1.7c-0.8,1.2-1.2,2.9-1.3,5c-0.1,1.3,0.1,2.2,0.5,2.9
				c0.4,0.7,1,1,1.9,1.1c1.1,0,2.1-0.4,2.8-1.3s1.2-2.2,1.5-3.9L248,55.9z"/>
			<path fill="#1BA2DC" d="M256.2,58.7l-1,5.5h-3.1l2.7-15.6l5.5,0c1.7,0,3,0.5,4,1.4c1,0.9,1.4,2.2,1.3,3.7
				c-0.1,1.5-0.8,2.8-1.9,3.7c-1.2,0.9-2.6,1.4-4.5,1.4L256.2,58.7z M256.6,56.1l2.6,0c0.8,0,1.5-0.2,2.1-0.7s0.9-1,1-1.8
				c0.1-0.7,0-1.3-0.4-1.8c-0.3-0.4-0.9-0.7-1.5-0.7l-3,0L256.6,56.1z"/>
			<path fill="#1BA2DC" d="M276.3,57.4h-6l-0.7,4.2h7l-0.5,2.6H266l2.7-15.6h10.2l-0.5,2.6h-7l-0.7,3.7h6L276.3,57.4z"/>
			<path fill="#1BA2DC" d="M284.8,58.5h-2.6l-1,5.7h-3.1l2.7-15.6l5.2,0c1.7,0,3.1,0.4,4,1.2c0.9,0.8,1.3,2,1.2,3.4
				c-0.2,2.1-1.3,3.6-3.4,4.5L290,64v0.2h-3.4L284.8,58.5z M282.7,55.8l2.3,0c0.8,0,1.5-0.2,2.1-0.7c0.5-0.4,0.9-1,1-1.8
				c0.1-0.7,0-1.2-0.3-1.6s-0.8-0.6-1.5-0.6l-2.7,0L282.7,55.8z"/>
		</g>
	</g>
</g>
</svg>
